<mxfile host="65bd71144e">
    <diagram id="eFyRUpc9CRtNJ-OtX8Fz" name="Страница 1">
        <mxGraphModel dx="839" dy="388" grid="1" gridSize="10" guides="1" tooltips="1" connect="1" arrows="1" fold="1" page="1" pageScale="1" pageWidth="827" pageHeight="1169" math="0" shadow="0">
            <root>
                <mxCell id="0"/>
                <mxCell id="1" parent="0"/>
                <mxCell id="2" value="start" style="rounded=1;whiteSpace=wrap;html=1;" parent="1" vertex="1">
                    <mxGeometry x="280" y="20" width="140" height="40" as="geometry"/>
                </mxCell>
                <mxCell id="3" value="arr, strLength" style="shape=parallelogram;perimeter=parallelogramPerimeter;whiteSpace=wrap;html=1;fixedSize=1;" parent="1" vertex="1">
                    <mxGeometry x="275" y="100" width="150" height="50" as="geometry"/>
                </mxCell>
                <mxCell id="4" value="&lt;span class=&quot;pl-smi&quot; style=&quot;box-sizing: border-box ; color: rgb(201 , 209 , 217) ; font-family: , , &amp;#34;sf mono&amp;#34; , &amp;#34;menlo&amp;#34; , &amp;#34;consolas&amp;#34; , &amp;#34;liberation mono&amp;#34; , monospace ; background-color: rgb(13 , 17 , 23)&quot;&gt;Array&lt;/span&gt;&lt;span style=&quot;color: rgb(201 , 209 , 217) ; font-family: , , &amp;#34;sf mono&amp;#34; , &amp;#34;menlo&amp;#34; , &amp;#34;consolas&amp;#34; , &amp;#34;liberation mono&amp;#34; , monospace ; background-color: rgb(13 , 17 , 23)&quot;&gt;.&lt;/span&gt;&lt;span class=&quot;pl-en&quot; style=&quot;box-sizing: border-box ; font-family: , , &amp;#34;sf mono&amp;#34; , &amp;#34;menlo&amp;#34; , &amp;#34;consolas&amp;#34; , &amp;#34;liberation mono&amp;#34; , monospace ; background-color: rgb(13 , 17 , 23)&quot;&gt;FindAll(arr, strLength)&lt;/span&gt;" style="rounded=0;whiteSpace=wrap;html=1;" vertex="1" parent="1">
                    <mxGeometry x="265" y="190" width="170" height="40" as="geometry"/>
                </mxCell>
                <mxCell id="5" value="" style="shape=document;whiteSpace=wrap;html=1;boundedLbl=1;" vertex="1" parent="1">
                    <mxGeometry x="265" y="280" width="170" height="80" as="geometry"/>
                </mxCell>
            </root>
        </mxGraphModel>
    </diagram>
</mxfile>